<?xml version="1.0" encoding="utf-8"?>
<!-- Generator: Adobe Illustrator 16.0.4, SVG Export Plug-In . SVG Version: 6.00 Build 0)  -->
<!DOCTYPE svg PUBLIC "-//W3C//DTD SVG 1.1//EN" "http://www.w3.org/Graphics/SVG/1.1/DTD/svg11.dtd">
<svg version="1.1" id="Capa_1" xmlns="http://www.w3.org/2000/svg" xmlns:xlink="http://www.w3.org/1999/xlink" x="0px" y="0px"
	 width="45.355px" height="45.125px" viewBox="0 0 45.355 45.125" enable-background="new 0 0 45.355 45.125" xml:space="preserve">
<path d="M33.052,29.557c2.36-3.099,3.781-6.952,3.781-11.14C36.836,8.263,28.573,0,18.419,0C8.262,0,0,8.263,0,18.417
	c0,10.157,8.265,18.418,18.419,18.418c4.307,0,8.262-1.495,11.398-3.979l12.269,12.269l3.27-3.269L33.052,29.557z M18.419,32.689
	c-7.871,0-14.271-6.4-14.271-14.271c0-7.87,6.4-14.272,14.271-14.272c7.87,0,14.271,6.401,14.271,14.271
	S26.288,32.689,18.419,32.689z"/>
</svg>
