<?xml version="1.0" encoding="utf-8"?>
<!-- Generator: Adobe Illustrator 15.0.0, SVG Export Plug-In . SVG Version: 6.00 Build 0)  -->
<!DOCTYPE svg PUBLIC "-//W3C//DTD SVG 1.1//EN" "http://www.w3.org/Graphics/SVG/1.1/DTD/svg11.dtd">
<svg version="1.1" id="Layer_1" xmlns="http://www.w3.org/2000/svg" xmlns:xlink="http://www.w3.org/1999/xlink" x="0px" y="0px"
	 width="32px" height="32px" viewBox="0 0 32 32" enable-background="new 0 0 32 32" xml:space="preserve">
<g id="settings">
	<path d="M30.391,12.68l-3.063-0.614c-0.154-0.443-0.336-0.873-0.537-1.289l1.735-2.604c0.529-0.793,0.425-1.85-0.25-2.523
		l-1.924-1.924c-0.387-0.387-0.897-0.586-1.416-0.586c-0.383,0-0.77,0.11-1.106,0.336l-2.604,1.735
		c-0.418-0.202-0.848-0.382-1.291-0.536L19.32,1.61c-0.187-0.936-1.008-1.608-1.961-1.608h-2.72c-0.953,0-1.774,0.673-1.961,1.608
		l-0.614,3.065c-0.443,0.154-0.873,0.335-1.289,0.536L8.172,3.476C7.833,3.25,7.447,3.14,7.063,3.14
		c-0.517,0-1.028,0.199-1.415,0.586L3.725,5.65c-0.674,0.674-0.779,1.73-0.25,2.523l1.735,2.604
		c-0.202,0.417-0.382,0.847-0.536,1.29L1.608,12.68C0.673,12.867,0,13.688,0,14.641v2.72c0,0.953,0.673,1.774,1.608,1.961
		l3.065,0.615c0.154,0.442,0.335,0.873,0.536,1.289L3.475,23.83c-0.529,0.793-0.424,1.85,0.25,2.523l1.924,1.924
		c0.387,0.387,0.898,0.586,1.415,0.586c0.384,0,0.771-0.111,1.108-0.336l2.604-1.736c0.417,0.203,0.847,0.383,1.29,0.537
		l0.613,3.064c0.187,0.936,1.008,1.608,1.961,1.608h2.719c0.953,0,1.775-0.674,1.961-1.608l0.615-3.064
		c0.443-0.154,0.873-0.336,1.289-0.537l2.604,1.736c0.338,0.225,0.726,0.336,1.106,0.336c0.519,0,1.029-0.199,1.416-0.586
		l1.924-1.924c0.675-0.674,0.779-1.73,0.25-2.523l-1.735-2.604c0.203-0.418,0.383-0.849,0.537-1.291l3.063-0.613
		C31.326,19.137,32,18.314,32,17.361v-2.72C32,13.688,31.326,12.867,30.391,12.68z M24.747,17.58
		c-0.557,0.111-1.011,0.508-1.197,1.045c-0.103,0.294-0.223,0.581-0.356,0.858c-0.25,0.512-0.207,1.114,0.107,1.586l1.389,2.083
		l-1.539,1.539l-2.083-1.389c-0.268-0.178-0.577-0.269-0.888-0.269c-0.237,0-0.477,0.052-0.697,0.159
		c-0.277,0.135-0.563,0.256-0.86,0.358c-0.534,0.187-0.932,0.642-1.042,1.197l-0.492,2.453h-2.176l-0.491-2.453
		c-0.111-0.556-0.508-1.011-1.043-1.197c-0.295-0.103-0.583-0.223-0.86-0.356c-0.221-0.109-0.459-0.161-0.698-0.161
		c-0.311,0-0.62,0.091-0.887,0.269l-2.083,1.389l-1.539-1.539l1.388-2.083c0.314-0.472,0.355-1.075,0.11-1.585
		c-0.135-0.277-0.255-0.563-0.359-0.859c-0.186-0.535-0.641-0.932-1.197-1.043L4.802,17.09L4.8,14.913l2.453-0.49
		c0.555-0.111,1.011-0.508,1.197-1.043c0.103-0.295,0.222-0.583,0.357-0.86c0.248-0.511,0.207-1.114-0.109-1.585L7.312,8.852
		L8.85,7.313L10.933,8.7C11.2,8.879,11.51,8.969,11.82,8.969c0.238,0,0.476-0.053,0.697-0.159c0.278-0.135,0.564-0.255,0.86-0.358
		c0.535-0.186,0.932-0.642,1.043-1.197l0.491-2.452l2.177-0.001l0.49,2.453c0.111,0.555,0.508,1.011,1.044,1.197
		c0.295,0.103,0.581,0.222,0.859,0.357c0.221,0.107,0.458,0.16,0.698,0.16c0.311,0,0.619-0.09,0.887-0.269l2.084-1.388l1.539,1.539
		l-1.39,2.083c-0.313,0.472-0.354,1.074-0.109,1.584c0.135,0.278,0.257,0.564,0.359,0.86c0.186,0.535,0.641,0.932,1.197,1.043
		l2.45,0.491L27.2,17.09L24.747,17.58z"/>
	<path d="M16,10.401c-3.092,0-5.6,2.508-5.6,5.6c0,3.093,2.508,5.601,5.6,5.601c3.092,0,5.6-2.508,5.6-5.601
		C21.6,12.909,19.092,10.401,16,10.401z M16,19.138c-1.731,0-3.136-1.404-3.136-3.136s1.404-3.136,3.136-3.136
		s3.136,1.404,3.136,3.136S17.731,19.138,16,19.138z"/>
</g>
</svg>
